<svg xmlns="http://www.w3.org/2000/svg" viewBox="0 0 160 160" role="img" aria-label="Pixel Fox">
  <path d="M39 61 27 22l37 25M121 61l12-39-37 25" fill="#c2410c" stroke="#7c2d12" stroke-width="5" stroke-linejoin="round"/><path d="m38 43-5-14 17 12M122 43l5-14-17 12" fill="#fbbf24"/>
  <path d="M80 39c34 0 53 26 45 59-6 26-22 42-45 42S41 124 35 98c-8-33 11-59 45-59Z" fill="#ea580c" stroke="#7c2d12" stroke-width="5"/><path d="M43 91c13 1 23 8 37 25 14-17 24-24 37-25-2 29-15 44-37 44S45 120 43 91Z" fill="#fff7ed"/>
  <path d="M55 73c5-5 11-5 16 0M89 73c5-5 11-5 16 0" fill="none" stroke="#292524" stroke-width="5" stroke-linecap="round"/><path d="m80 91-8 6 8 7 8-7-8-6Z" fill="#292524"/><path d="M73 108c4 4 10 4 14 0" fill="none" stroke="#7c2d12" stroke-width="4" stroke-linecap="round"/>
  <path d="M46 119c-22 2-31 18-22 29 9 12 30 2 43-10" fill="none" stroke="#ea580c" stroke-width="17" stroke-linecap="round"/><path d="M25 145c7 4 15 1 23-5" fill="none" stroke="#fff7ed" stroke-width="10" stroke-linecap="round"/><path d="M60 137v12M100 137v12" stroke="#292524" stroke-width="9" stroke-linecap="round"/><circle cx="80" cy="126" r="7" fill="#5ac8e0" stroke="#164e63" stroke-width="3"/>
</svg>
