<svg xmlns="http://www.w3.org/2000/svg" viewBox="0 0 160 160"><rect width="160" height="160" rx="24" fill="#fff7ed"/><path d="M39 61 27 22l37 25M121 61l12-39-37 25" fill="#c2410c" stroke="#7c2d12" stroke-width="5"/><path d="M80 39c34 0 53 26 45 59-6 26-22 42-45 42S41 124 35 98c-8-33 11-59 45-59Z" fill="#ea580c" stroke="#7c2d12" stroke-width="5"/><path d="M43 91c13 1 23 8 37 25 14-17 24-24 37-25-2 29-15 44-37 44S45 120 43 91Z" fill="#fff"/><path d="M55 73c5-5 11-5 16 0M89 73c5-5 11-5 16 0" fill="none" stroke="#292524" stroke-width="5"/><path d="m80 91-8 6 8 7 8-7-8-6Z" fill="#292524"/></svg>
