<svg xmlns="http://www.w3.org/2000/svg" viewBox="0 0 160 160" role="img" aria-label="Terminal Robot">
  <defs><linearGradient id="body" x1="0" y1="0" x2="1" y2="1"><stop offset="0" stop-color="#334155"/><stop offset="1" stop-color="#111827"/></linearGradient></defs>
  <path d="M80 20v13" fill="none" stroke="#5ac8e0" stroke-width="6" stroke-linecap="round"/><circle cx="80" cy="15" r="7" fill="#3dd68c"/>
  <rect x="35" y="32" width="90" height="76" rx="24" fill="url(#body)" stroke="#5ac8e0" stroke-width="5"/><rect x="47" y="45" width="66" height="48" rx="14" fill="#071018" stroke="#64748b" stroke-width="3"/>
  <circle cx="68" cy="68" r="7" fill="#5ac8e0"/><circle cx="92" cy="68" r="7" fill="#5ac8e0"/><path d="M69 82c7 5 15 5 22 0" fill="none" stroke="#3dd68c" stroke-width="4" stroke-linecap="round"/>
  <path d="M35 63 21 73v25M125 63l14 10v25" fill="none" stroke="#94a3b8" stroke-width="8" stroke-linecap="round" stroke-linejoin="round"/>
  <rect x="52" y="105" width="56" height="25" rx="10" fill="#1f2937" stroke="#3dd68c" stroke-width="4"/><path d="M64 130v16M96 130v16" stroke="#94a3b8" stroke-width="9" stroke-linecap="round"/><path d="M52 146h24M84 146h24" stroke="#334155" stroke-width="9" stroke-linecap="round"/>
</svg>
